<svg xmlns="http://www.w3.org/2000/svg" height="512" width="512" xmlns:v="https://vecta.io/nano"><path d="M508 425.98H4a4 4 0 0 1-4-4V90.02a4 4 0 0 1 4-4h504a4 4 0 0 1 4 4v331.96a4 4 0 0 1-4 4z" fill="#4ba543"/><path d="M481.095 86.02v339.96H508a4 4 0 0 0 4-4V90.02a4 4 0 0 0-4-4z" fill="#43a047"/><path d="M70.122 252.72l183.6-128.017a4 4 0 0 1 4.576 0l183.6 128.017c2.283 1.592 2.283 4.97 0 6.562l-183.6 128.017a4 4 0 0 1-4.576 0L70.122 259.28c-2.283-1.592-2.283-4.97 0-6.562z" fill="#fece3f"/><circle cx="256" cy="256" fill="#2387eb" r="74.173"/><path d="M256 181.827c-5.3 0-10.467.566-15.453 1.623 33.546 7.11 58.72 36.886 58.72 72.55s-25.175 65.44-58.72 72.55A74.43 74.43 0 0 0 256 330.173c40.965 0 74.173-33.208 74.173-74.173S296.965 181.827 256 181.827z" fill="#207bd6"/><path d="M183.12 242.25l143.247 37.202A74.06 74.06 0 0 0 330.173 256a74.96 74.96 0 0 0-.384-7.591l-134.54-34.94c-5.94 8.467-10.15 18.228-12.13 28.78z" fill="#efefef"/><path d="M297.54 271.964l28.827 7.487A74.06 74.06 0 0 0 330.173 256a74.96 74.96 0 0 0-.384-7.591l-32.25-8.376A74.39 74.39 0 0 1 299.268 256c0 5.48-.6 10.822-1.728 15.964z" fill="#dcdcdc"/></svg>