<svg xmlns="http://www.w3.org/2000/svg" xmlns:xlink="http://www.w3.org/1999/xlink" height="512" width="512" xmlns:v="https://vecta.io/nano"><path d="M495.484 90.84H264.258L9 267.5v146.833h486.484L512 404.645v-30.673l-10.75-10.222v-29l10.75-7.967v-47.19l-9.667-9.26v-29.667l9.667-8.262v-47.188l-9.667-8.55v-26l9.667-12.64v-30.673a16.52 16.52 0 0 0-16.516-16.516z" fill="#e5646e"/><path d="M256.333 138.028H512v47.2H256.333zM256 232.405l8.258 47.2H512v-47.2z" fill="#f2f2f6"/><path d="M16.516 355.097V271L0 279.594v47.19l7 5.967v31l-7 10.222v30.673a16.52 16.52 0 0 0 16.516 16.516h478.968A16.52 16.52 0 0 0 512 404.645H66.065c-27.365 0-49.55-22.183-49.55-49.548z" fill="#db4655"/><path d="M264.258 90.84H16.516L6 107.355l10.516 172.24h247.742z" fill="#5055a0"/><path d="M16.516 90.84A16.52 16.52 0 0 0 0 107.355v172.24h16.516z" fill="#3f3f8f"/><g fill="#fff"><use xlink:href="#B"/><use xlink:href="#B" y="66.065"/><use xlink:href="#B" y="132.129"/></g><g fill="#f2f2f6"><use xlink:href="#B" y="33.043"/><use xlink:href="#B" y="99.097"/></g><g fill="#fff"><use xlink:href="#B" x="198.193"/><use xlink:href="#B" x="198.193" y="66.065"/><use xlink:href="#B" x="198.193" y="132.129"/></g><g fill="#f2f2f6"><use xlink:href="#B" x="198.193" y="33.043"/><use xlink:href="#B" x="198.193" y="99.097"/><use xlink:href="#B" x="49.547"/><use xlink:href="#B" x="49.547" y="66.065"/><use xlink:href="#B" x="49.547" y="132.129"/></g><g fill="#fff"><use xlink:href="#B" x="49.547" y="33.043"/><use xlink:href="#B" x="49.547" y="99.097"/><use xlink:href="#B" x="24.774" y="16.516"/><use xlink:href="#B" x="24.774" y="82.581"/></g><g fill="#f2f2f6"><use xlink:href="#B" x="24.774" y="49.549"/><use xlink:href="#B" x="24.774" y="115.613"/></g><g fill="#fff"><use xlink:href="#B" x="99.087"/><use xlink:href="#B" x="99.087" y="66.065"/><use xlink:href="#B" x="99.087" y="132.129"/></g><g fill="#f2f2f6"><use xlink:href="#B" x="99.087" y="33.043"/><use xlink:href="#B" x="99.087" y="99.097"/><use xlink:href="#B" x="74.322" y="16.516"/><use xlink:href="#B" x="74.322" y="82.581"/></g><g fill="#fff"><use xlink:href="#B" x="74.322" y="49.549"/><use xlink:href="#B" x="74.322" y="115.613"/></g><g fill="#f2f2f6"><use xlink:href="#B" x="148.564"/><use xlink:href="#B" x="148.564" y="66.065"/><use xlink:href="#B" x="148.564" y="132.129"/></g><g fill="#fff"><use xlink:href="#B" x="148.564" y="33.043"/><use xlink:href="#B" x="148.564" y="99.097"/><use xlink:href="#B" x="123.79" y="16.516"/><use xlink:href="#B" x="123.79" y="82.581"/></g><g fill="#f2f2f6"><use xlink:href="#B" x="123.79" y="49.549"/><use xlink:href="#B" x="123.79" y="115.613"/><use xlink:href="#B" x="173.419" y="16.516"/><use xlink:href="#B" x="173.419" y="82.581"/></g><g fill="#fff"><use xlink:href="#B" x="173.419" y="49.549"/><use xlink:href="#B" x="173.419" y="115.613"/></g><path d="M3 360.333l17.26 13.64H512v-47.19H16.516z" fill="#f2f2f6"/><path d="M0 326.783v47.19h20.26a49.37 49.37 0 0 1-3.743-18.876v-28.314H0z" fill="#e1e1e6"/><defs ><path id="B" d="M33.113 127.657c-4.565 0-8.298-3.698-8.298-8.258s3.653-8.258 8.218-8.258h.08a8.26 8.26 0 0 1 8.258 8.258 8.26 8.26 0 0 1-8.259 8.258z"/></defs></svg>