<svg xmlns="http://www.w3.org/2000/svg" height="512" width="512" xmlns:v="https://vecta.io/nano"><path d="M495.484 90.84H16.516l-8.85 16.516v291.13A16.52 16.52 0 0 0 24.183 415h471.3L512 404.645v-49.548L497 337V171l15-14.097v-49.548a16.52 16.52 0 0 0-16.516-16.516z" fill="#e5646e"/><path d="M16.516 355.097V90.84A16.52 16.52 0 0 0 0 107.355v49.548L7.5 168.5V342L0 355.097v49.548a16.52 16.52 0 0 0 16.516 16.516h478.968A16.52 16.52 0 0 0 512 404.645H66.065c-27.365 0-49.55-22.183-49.55-49.548z" fill="#db4655"/><path d="M512 355.097H16.516L8.5 339.5V177l8.016-20.097H512z" fill="#ffe07d"/><path d="M148.645 189.935a16.52 16.52 0 0 0-16.516 16.516v24.774h33.032V206.45a16.52 16.52 0 0 0-16.516-16.516z" fill="#db4655"/><path d="M148.645 313.806l-41.3-49.548v-33.032a8.26 8.26 0 0 1 8.258-8.258h33.032l41.3 41.3v8.258c0 22.804-18.486 41.3-41.3 41.3z" fill="#e5646e"/><path d="M66.065 222.968H82.58v82.58H66.065z" fill="#fff"/><path d="M0 156.903h16.516v198.194H0z" fill="#ffd064"/><circle cx="74.323" cy="222.968" fill="#e5646e" r="8.258"/><circle cx="74.323" cy="305.548" fill="#5055a0" r="8.258"/><path d="M214.7 222.968h16.516v82.58H214.7z" fill="#fff"/><circle cx="222.968" cy="222.968" fill="#e5646e" r="8.258"/><circle cx="222.968" cy="305.548" fill="#5055a0" r="8.258"/><path d="M181.677 222.968h-33.032v41.3h41.3v-33.032a8.26 8.26 0 0 0-8.258-8.258z" fill="#fff"/><path d="M107.355 264.258v8.258c0 22.804 18.486 41.3 41.3 41.3v-49.548z" fill="#ffc269"/><circle cx="148.645" cy="264.258" fill="#5055a0" r="16.516"/></svg>